<?xml version="1.0" encoding="UTF-8"?>
<svg width="129px" height="122px" viewBox="0 0 129 122" version="1.1" xmlns="http://www.w3.org/2000/svg" xmlns:xlink="http://www.w3.org/1999/xlink">
    <!-- Generator: Sketch 46.2 (44496) - http://www.bohemiancoding.com/sketch -->
    <title>Units/Hundreds/New Regular</title>
    <desc>Created with Sketch.</desc>
    <defs></defs>
    <g id="Symbols" stroke="none" stroke-width="1" fill="none" fill-rule="evenodd">
        <g id="Units/Hundreds/New-Regular">
            <rect id="Rectangle-5" fill="#F37921" x="0" y="0" width="129" height="122"></rect>
            <g id="Group" transform="translate(1.000000, 2.000000)" fill="#FF9E59">
                <rect id="Rectangle-2" x="117" y="0" width="10" height="10"></rect>
                <rect id="Rectangle-2" x="117" y="12" width="10" height="10"></rect>
                <rect id="Rectangle-2" x="117" y="24" width="10" height="10"></rect>
                <rect id="Rectangle-2" x="117" y="36" width="10" height="10"></rect>
                <rect id="Rectangle-2" x="117" y="48" width="10" height="10"></rect>
                <rect id="Rectangle-2" x="117" y="60" width="10" height="10"></rect>
                <rect id="Rectangle-2" x="117" y="72" width="10" height="10"></rect>
                <rect id="Rectangle-2" x="117" y="84" width="10" height="10"></rect>
                <rect id="Rectangle-2" x="117" y="96" width="10" height="10"></rect>
                <rect id="Rectangle-2" x="117" y="108" width="10" height="10"></rect>
                <rect id="Rectangle-2" x="104" y="0" width="10" height="10"></rect>
                <rect id="Rectangle-2" x="104" y="12" width="10" height="10"></rect>
                <rect id="Rectangle-2" x="104" y="24" width="10" height="10"></rect>
                <rect id="Rectangle-2" x="104" y="36" width="10" height="10"></rect>
                <rect id="Rectangle-2" x="104" y="48" width="10" height="10"></rect>
                <rect id="Rectangle-2" x="104" y="60" width="10" height="10"></rect>
                <rect id="Rectangle-2" x="104" y="72" width="10" height="10"></rect>
                <rect id="Rectangle-2" x="104" y="84" width="10" height="10"></rect>
                <rect id="Rectangle-2" x="104" y="96" width="10" height="10"></rect>
                <rect id="Rectangle-2" x="104" y="108" width="10" height="10"></rect>
                <rect id="Rectangle-2" x="91" y="0" width="10" height="10"></rect>
                <rect id="Rectangle-2" x="91" y="12" width="10" height="10"></rect>
                <rect id="Rectangle-2" x="91" y="24" width="10" height="10"></rect>
                <rect id="Rectangle-2" x="91" y="36" width="10" height="10"></rect>
                <rect id="Rectangle-2" x="91" y="48" width="10" height="10"></rect>
                <rect id="Rectangle-2" x="91" y="60" width="10" height="10"></rect>
                <rect id="Rectangle-2" x="91" y="72" width="10" height="10"></rect>
                <rect id="Rectangle-2" x="91" y="84" width="10" height="10"></rect>
                <rect id="Rectangle-2" x="91" y="96" width="10" height="10"></rect>
                <rect id="Rectangle-2" x="91" y="108" width="10" height="10"></rect>
                <rect id="Rectangle-2" x="78" y="0" width="10" height="10"></rect>
                <rect id="Rectangle-2" x="78" y="12" width="10" height="10"></rect>
                <rect id="Rectangle-2" x="78" y="24" width="10" height="10"></rect>
                <rect id="Rectangle-2" x="78" y="36" width="10" height="10"></rect>
                <rect id="Rectangle-2" x="78" y="48" width="10" height="10"></rect>
                <rect id="Rectangle-2" x="78" y="60" width="10" height="10"></rect>
                <rect id="Rectangle-2" x="78" y="72" width="10" height="10"></rect>
                <rect id="Rectangle-2" x="78" y="84" width="10" height="10"></rect>
                <rect id="Rectangle-2" x="78" y="96" width="10" height="10"></rect>
                <rect id="Rectangle-2" x="78" y="108" width="10" height="10"></rect>
                <rect id="Rectangle-2" x="65" y="0" width="10" height="10"></rect>
                <rect id="Rectangle-2" x="65" y="12" width="10" height="10"></rect>
                <rect id="Rectangle-2" x="65" y="24" width="10" height="10"></rect>
                <rect id="Rectangle-2" x="65" y="36" width="10" height="10"></rect>
                <rect id="Rectangle-2" x="65" y="48" width="10" height="10"></rect>
                <rect id="Rectangle-2" x="65" y="60" width="10" height="10"></rect>
                <rect id="Rectangle-2" x="65" y="72" width="10" height="10"></rect>
                <rect id="Rectangle-2" x="65" y="84" width="10" height="10"></rect>
                <rect id="Rectangle-2" x="65" y="96" width="10" height="10"></rect>
                <rect id="Rectangle-2" x="65" y="108" width="10" height="10"></rect>
                <rect id="Rectangle-2" x="52" y="0" width="10" height="10"></rect>
                <rect id="Rectangle-2" x="52" y="12" width="10" height="10"></rect>
                <rect id="Rectangle-2" x="52" y="24" width="10" height="10"></rect>
                <rect id="Rectangle-2" x="52" y="36" width="10" height="10"></rect>
                <rect id="Rectangle-2" x="52" y="48" width="10" height="10"></rect>
                <rect id="Rectangle-2" x="52" y="60" width="10" height="10"></rect>
                <rect id="Rectangle-2" x="52" y="72" width="10" height="10"></rect>
                <rect id="Rectangle-2" x="52" y="84" width="10" height="10"></rect>
                <rect id="Rectangle-2" x="52" y="96" width="10" height="10"></rect>
                <rect id="Rectangle-2" x="52" y="108" width="10" height="10"></rect>
                <rect id="Rectangle-2" x="39" y="0" width="10" height="10"></rect>
                <rect id="Rectangle-2" x="39" y="12" width="10" height="10"></rect>
                <rect id="Rectangle-2" x="39" y="24" width="10" height="10"></rect>
                <rect id="Rectangle-2" x="39" y="36" width="10" height="10"></rect>
                <rect id="Rectangle-2" x="39" y="48" width="10" height="10"></rect>
                <rect id="Rectangle-2" x="39" y="60" width="10" height="10"></rect>
                <rect id="Rectangle-2" x="39" y="72" width="10" height="10"></rect>
                <rect id="Rectangle-2" x="39" y="84" width="10" height="10"></rect>
                <rect id="Rectangle-2" x="39" y="96" width="10" height="10"></rect>
                <rect id="Rectangle-2" x="39" y="108" width="10" height="10"></rect>
                <rect id="Rectangle-2" x="26" y="0" width="10" height="10"></rect>
                <rect id="Rectangle-2" x="26" y="12" width="10" height="10"></rect>
                <rect id="Rectangle-2" x="26" y="24" width="10" height="10"></rect>
                <rect id="Rectangle-2" x="26" y="36" width="10" height="10"></rect>
                <rect id="Rectangle-2" x="26" y="48" width="10" height="10"></rect>
                <rect id="Rectangle-2" x="26" y="60" width="10" height="10"></rect>
                <rect id="Rectangle-2" x="26" y="72" width="10" height="10"></rect>
                <rect id="Rectangle-2" x="26" y="84" width="10" height="10"></rect>
                <rect id="Rectangle-2" x="26" y="96" width="10" height="10"></rect>
                <rect id="Rectangle-2" x="26" y="108" width="10" height="10"></rect>
                <rect id="Rectangle-2" x="13" y="0" width="10" height="10"></rect>
                <rect id="Rectangle-2" x="13" y="12" width="10" height="10"></rect>
                <rect id="Rectangle-2" x="13" y="24" width="10" height="10"></rect>
                <rect id="Rectangle-2" x="13" y="36" width="10" height="10"></rect>
                <rect id="Rectangle-2" x="13" y="48" width="10" height="10"></rect>
                <rect id="Rectangle-2" x="13" y="60" width="10" height="10"></rect>
                <rect id="Rectangle-2" x="13" y="72" width="10" height="10"></rect>
                <rect id="Rectangle-2" x="13" y="84" width="10" height="10"></rect>
                <rect id="Rectangle-2" x="13" y="96" width="10" height="10"></rect>
                <rect id="Rectangle-2" x="13" y="108" width="10" height="10"></rect>
                <rect id="Rectangle-2" x="0" y="0" width="10" height="10"></rect>
                <rect id="Rectangle-2" x="0" y="12" width="10" height="10"></rect>
                <rect id="Rectangle-2" x="0" y="24" width="10" height="10"></rect>
                <rect id="Rectangle-2" x="0" y="36" width="10" height="10"></rect>
                <rect id="Rectangle-2" x="0" y="48" width="10" height="10"></rect>
                <rect id="Rectangle-2" x="0" y="60" width="10" height="10"></rect>
                <rect id="Rectangle-2" x="0" y="72" width="10" height="10"></rect>
                <rect id="Rectangle-2" x="0" y="84" width="10" height="10"></rect>
                <rect id="Rectangle-2" x="0" y="96" width="10" height="10"></rect>
                <rect id="Rectangle-2" x="0" y="108" width="10" height="10"></rect>
            </g>
        </g>
    </g>
</svg>